<svg width="549" height="266" viewBox="0 0 549 266" fill="none" xmlns="http://www.w3.org/2000/svg">
<g clip-path="url(#clip0_26_63)">
<path d="M43.7436 134.069C38.6611 133.813 33.751 132.142 29.5665 129.243C25.4222 132.208 20.4823 133.856 15.3894 133.973C8.05974 133.973 2.94826 130.594 2.94826 125.189C2.94826 121.425 6.32376 118.143 12.1103 118.143C18.9578 118.143 25.323 123.162 27.3483 124.578C30.9167 122.165 33.0385 110.968 39.0179 99.208C47.8907 81.6406 56.5705 73.05 65.9255 69.4786C60.5247 61.7567 50.5911 56.834 38.1499 56.834C14.6178 56.834 6.00229 73.9187 6.90243 85.6785C7.9633 84.7294 13.9428 78.4553 22.044 78.4553C32.2669 78.4553 39.5966 84.7294 39.5966 92.8374C39.5966 100.64 31.8811 105.707 25.5159 105.707C9.60281 105.707 6.13087 88.5421 6.13087 88.5421C2.70926 92.8525 0.810151 98.1757 0.730072 103.68C0.730072 107.252 1.50161 109.279 3.52691 114.491L2.65893 115.07C0.814251 111.543 -0.238989 107.656 -0.427246 103.68C-0.272828 97.5427 1.93455 91.6344 5.84155 86.9012C4.49135 72.6156 14.2321 55.6274 38.1499 55.6274C50.0124 55.6274 60.9105 60.0675 67.8544 68.7547C71.3555 67.6862 74.9958 67.1441 78.656 67.146C85.407 67.146 90.9043 69.4625 93.5082 72.1652L93.1225 72.9374C87.0465 68.8834 85.0855 68.3043 78.656 68.3043C75.2789 68.2897 71.9226 68.8333 68.7224 69.913C73.4091 76.7756 75.806 84.9465 75.5698 93.2557C75.5698 111.933 60.4283 134.069 43.7436 134.069ZM10.6637 119.398C9.87702 119.346 9.08827 119.459 8.3472 119.728C7.60612 119.997 6.9288 120.417 6.35794 120.961C5.78707 121.505 5.33504 122.162 5.03038 122.889C4.72571 123.617 4.57501 124.4 4.58778 125.189C4.58778 129.243 8.34907 132.332 13.0748 132.332C18.8614 132.332 25.8052 125.768 25.8052 125.768C21.7113 121.864 16.3166 119.617 10.6637 119.462V119.398ZM22.044 79.5493C14.0071 79.5493 7.09531 87.2712 7.09531 87.2712C7.09531 87.2712 9.89214 104.533 25.5159 104.533C31.3025 104.533 38.375 99.7067 38.375 92.7731C38.4393 84.3272 29.9523 79.6136 22.044 79.6136V79.5493ZM45.7689 107.236C40.0788 121.618 35.4495 124.32 31.2061 127.795C32.8134 128.76 36.1246 131.173 39.0179 131.173C55.799 131.173 70.5548 105.884 70.5548 85.4372C70.6548 80.2526 69.3197 75.1413 66.6971 70.6691C52.7128 77.0075 50.6875 94.8483 45.7689 107.3V107.236Z" fill="white"/>
<path d="M144.977 147.647C130.221 147.936 120.48 139.346 118.165 137.705C116.14 138.767 98.5876 150.06 81.9029 150.06C59.6246 150.06 43.3257 134.906 43.3257 114.25C43.3257 93.5935 57.0207 79.501 77.563 79.501C79.4807 79.5713 81.3724 79.9685 83.1567 80.6754V81.8337C81.3758 81.104 79.4847 80.6798 77.563 80.5788C56.1527 80.5788 44.3866 96.3122 44.3866 114.25C44.3866 134.134 60.2997 149.095 81.9029 149.095C97.816 149.095 117.265 136.933 117.265 136.933L113.793 133.844C113.793 133.844 103.956 135.967 103.956 131.238C103.956 126.508 114.083 131.527 114.083 131.527C115.24 131.527 121.123 126.122 121.605 124.867C122.57 122.551 129.417 107.976 129.417 101.508C125.522 102.093 121.589 102.383 117.651 102.377C112.443 109.906 99.6163 134.23 82.2887 134.23C72.3551 134.23 67.1472 128.728 67.1472 121.682C67.1472 110.968 77.9488 100.945 92.7046 100.945H116.719C118.796 96.6353 121.318 92.5538 124.241 88.7673C138.322 71.0712 152.21 67.8538 152.21 67.8538C152.789 67.8538 153.174 68.7225 153.174 69.4625C153.174 72.9374 140.926 75.7366 139.19 98.3232C139.19 98.3232 157.9 92.2261 157.9 74.7713C157.9 60.9684 143.819 50.1577 126.17 50.1577C106.978 50.1577 93.4761 63.8641 93.4761 75.1574C93.4761 89.3464 103.603 92.7087 103.603 92.7087L103.313 93.9635C103.313 93.9635 92.0616 90.4082 92.0616 75.1574C92.1259 63.285 106.399 48.8064 126.17 48.8064C144.687 48.8064 159.266 60.3088 159.266 74.7874C159.266 93.5935 139.013 100.077 139.013 100.077C139.013 100.077 138.338 105.659 138.049 106.914C137.084 110.871 130.526 125.35 116.06 133.361C117.217 134.423 118.471 135.581 118.953 136.064C139.849 123.194 142.485 121.682 149.718 121.682C156.952 121.682 162.577 126.701 162.577 132.943C162.626 140.987 152.837 147.454 144.977 147.647ZM96.1765 102.602C82.8674 102.602 71.68 111.772 71.68 121.714C71.68 129.919 75.9235 132.975 82.2887 132.975C97.4303 132.975 109.968 111.161 115.562 102.667L96.1765 102.602ZM105.917 131.56C105.917 133.973 111.222 132.428 111.222 132.428C111.222 132.428 105.917 129.5 105.917 131.527V131.56ZM128.581 85.6303C124.435 90.1534 121.077 95.3413 118.648 100.978C122.263 100.909 125.87 100.619 129.449 100.109C131.764 85.035 147.677 71.9239 145.941 71.9239C143.53 71.8917 134.464 78.8253 128.581 85.5981V85.6303ZM149.799 123.065C142.083 123.065 139.19 125.189 119.901 136.965C126.951 142.853 135.797 146.156 144.977 146.328C152.596 146.328 161.276 139.893 161.276 133.007C161.276 127.28 156.357 123.033 149.799 123.033V123.065Z" fill="white"/>
<path d="M266.688 71.7952C263.629 71.7652 260.597 71.2214 257.719 70.1865C257.719 70.1865 255.79 73.2753 253.764 77.1201C247.013 89.99 244.313 97.1971 231.968 116.985C226.471 125.865 222.517 132.621 221.07 132.621C220.765 132.64 220.464 132.54 220.231 132.342C219.997 132.144 219.849 131.864 219.816 131.56C219.816 131.077 223.578 123.741 223.578 118.69C223.578 111.257 221.842 105.176 222.131 96.6823C222.185 91.8228 222.669 86.9777 223.578 82.2037L208.243 112.593C198.503 131.222 187.99 139.941 173.813 139.941C157.321 139.941 146.488 129.999 146.488 115.231C146.534 106.892 149.859 98.9071 155.743 93.0032C161.627 87.0992 169.596 83.7513 177.928 83.6838C180.079 83.7038 182.227 83.865 184.358 84.1664C184.936 75.4632 191.591 65.0547 199.981 61.2902C204.9 59.0702 209.626 58.6841 219.077 58.6841C230.072 58.6841 254.439 67.6608 257.172 68.9156C259.776 66.0199 264.405 61.0972 270.77 61.0972C274.532 61.0972 277.2 62.7059 277.2 65.3442C277.104 68.803 273.053 71.7952 266.688 71.7952ZM219.045 59.6332C211.812 59.6332 207.086 61.3707 201.106 64.2664C197.137 66.2331 193.698 69.126 191.08 72.7013C188.462 76.2766 186.74 80.4295 186.061 84.8099C193.873 88.2043 196.188 91.7757 198.695 100.447C206.411 99.578 212.005 95.6206 212.005 86.853C211.826 84.4679 211.284 82.1243 210.397 79.9033L211.265 79.7102C212.15 82.0058 212.734 84.4069 213.001 86.853C213.001 94.7679 209.143 100.35 198.92 101.702C198.92 109.423 197.956 113.574 193.809 119.655C188.697 126.894 179.921 131.431 172.495 131.431C164.105 131.431 157.643 124.996 157.643 115.891C157.643 104.501 166.901 94.0762 177.028 94.0762C180.451 94.0416 183.748 95.3607 186.205 97.7466C188.661 100.132 190.077 103.392 190.144 106.817C190.027 109.396 189.3 111.911 188.022 114.153C187.674 114.244 187.319 114.308 186.962 114.346C188.239 112.028 188.996 109.458 189.18 106.817C189.068 103.654 187.743 100.655 185.48 98.4445C183.217 96.2335 180.19 94.9802 177.028 94.9449C166.419 94.9449 158.607 106.528 158.607 115.858C158.607 124.353 164.587 130.627 172.495 130.627C179.343 130.627 188.569 125.8 193.037 119.237C196.639 114.065 198.405 107.835 198.052 101.541C194.196 100.87 190.702 98.8508 188.194 95.8428C185.686 92.8347 184.326 89.0332 184.358 85.1155C182.229 84.7713 180.082 84.5511 177.928 84.456C169.787 84.4773 161.986 87.729 156.237 93.4981C150.488 99.2673 147.259 107.083 147.259 115.231C147.259 129.517 158.157 139.169 173.877 139.169C186.994 139.169 197.892 130.578 207.247 112.528C213.515 100.672 221.134 84.5525 222.485 82.1394C226.728 74.6105 236.951 65.9234 236.951 65.9234C232.834 64.5225 228.557 63.6469 224.221 63.3172C211.104 63.3172 198.277 70.8461 198.277 77.0075C198.277 79.6298 201.364 81.2707 201.364 81.2707L201.171 82.1394C201.171 82.1394 197.313 80.6915 197.313 77.0075C197.313 70.0739 210.333 62.5289 224.221 62.5289C228.946 62.5289 232.033 63.2046 239.073 65.5212C230.297 72.7605 227.982 76.1388 227.982 82.8955C227.982 84.5042 231.84 106.335 231.84 107.396C231.84 109.52 231.165 113.284 228.625 120.717C241.838 99.6746 243.766 94.8484 253.025 76.4123C254.158 74.1628 255.414 71.977 256.786 69.8648C256.786 69.8648 229.654 59.6332 219.045 59.6332ZM186.061 85.8073C185.676 94.6714 193.584 99.5941 197.827 100.463C195.706 93.2235 194.163 89.1535 186.061 85.8073ZM270.738 62.0624C265.241 62.0624 260.226 66.7921 258.297 69.3017C260.994 70.2493 263.83 70.7387 266.688 70.7496C271.703 70.7496 276.236 68.7226 276.236 65.4407C276.236 63.3977 273.053 62.0463 270.738 62.0463V62.0624Z" fill="white"/>
<path d="M334.776 74.4012C316.838 80.1766 311.051 105.948 311.051 107.493C311.051 107.975 318.478 104.79 321.371 101.701C323.899 98.3955 325.766 94.6319 326.868 90.6173L327.736 90.9873C327.736 91.5664 325.421 99.0309 322.046 102.667C318.885 105.744 314.954 107.912 310.666 108.941C304.493 127.087 292.984 134.133 276.043 134.133C264.662 134.133 247.978 127.28 247.978 106.431C247.341 103.032 247.051 99.577 247.11 96.1191C247.11 78.6322 261.866 66.0037 276.043 66.0037C279.405 65.9816 282.731 66.7011 285.783 68.1111L285.59 68.9798C282.544 67.6528 279.268 66.9315 275.946 66.8563C262.926 66.8563 247.978 78.8092 247.978 96.103C248.08 98.4289 248.338 100.745 248.749 103.037C248.749 103.037 253.089 81.6244 276.718 81.6244C282.253 81.6831 287.626 83.5092 292.052 86.8367C293.231 82.8548 295.584 79.3221 298.803 76.7017C305.233 70.7172 315.295 67.532 326.868 67.532C334.776 67.532 342.942 69.4624 345.674 70.9103C346.35 71.3929 346.06 71.9721 346.35 72.6477C342.427 72.6624 338.528 73.2532 334.776 74.4012ZM297.807 106.576C292.792 121.537 283.34 126.17 272.346 126.267C255.854 126.363 250.55 111.209 249.103 108.313C250.55 127.232 265.177 133.12 276.107 133.12C283.533 133.12 297.132 122.02 302.339 109.085C300.675 108.496 299.121 107.632 297.742 106.528L297.807 106.576ZM292.534 97.0683C291.953 94.0736 291.662 91.0296 291.666 87.9789C287.491 84.4461 282.185 82.5334 276.718 82.5897C253.089 82.5897 249.617 103.809 249.135 105.836C249.135 105.836 254.825 125.43 272.281 125.43C291.281 125.43 295.717 108.748 296.874 105.836C294.864 103.228 293.389 100.249 292.534 97.0683ZM296.199 97.0683C295.607 94.1765 294.425 91.4381 292.727 89.0246C292.875 91.6126 293.164 94.1905 293.595 96.7465C294.23 99.2414 295.32 101.597 296.81 103.696C296.729 101.477 296.525 99.2646 296.199 97.0683ZM326.868 68.3202C311.051 68.3202 296.874 75.0769 293.017 87.7215C295.128 90.3862 296.552 93.5298 297.164 96.8752C297.587 99.6566 297.845 102.461 297.935 105.273C299.379 106.362 300.97 107.24 302.661 107.879C304.011 104.211 308.93 86.3541 323.107 77.0878C328.411 73.6291 332.944 72.6638 344.614 72.0847C344.115 71.0229 336.223 68.3202 326.868 68.3202Z" fill="white"/>
<path d="M358.051 94.9449C358.919 96.1193 361.716 96.3123 361.813 98.1624C361.813 98.9346 361.427 99.2402 360.655 99.3207C358.63 99.6102 356.798 97.1006 356.798 97.1006C349.757 92.8696 336.834 100.865 336.834 113.799C336.834 124.224 343.681 132.814 352.361 132.814C364.224 132.814 374.254 122.969 374.254 111.483C374.254 105.402 370.878 101.251 365.767 101.251C357.73 101.251 350.047 109.649 350.047 116.502C350.047 120.942 353.036 124.224 356.798 124.224C366.442 124.224 366.924 111.354 366.924 108.297H368.081C368.371 113.124 367.117 125.575 356.83 125.575C352.2 125.575 348.793 121.521 348.793 116.502C348.793 108.7 357.28 99.9159 365.863 99.9159C371.65 99.9159 375.7 104.742 375.7 111.483C375.56 117.59 373.06 123.405 368.726 127.707C364.392 132.009 358.561 134.462 352.458 134.552C336.384 134.552 327.768 125.286 327.768 113.124C327.768 101.541 335.966 91.1322 351.686 92.2101C350.036 89.8875 348.937 87.2191 348.471 84.4077C342.466 82.8048 336.265 82.0574 330.051 82.1877C307.869 82.1877 293.595 91.84 293.595 102.924C293.892 104.739 294.377 106.518 295.042 108.233L293.885 109.005C292.905 107.157 292.355 105.111 292.277 103.021C292.277 90.8587 307.033 80.9329 329.986 80.9329C336.173 80.7944 342.355 81.3775 348.407 82.6703C348.214 73.8866 356.315 67.323 366.249 67.4195C373.386 67.516 379.108 72.8248 379.108 79.0024C379.108 84.4077 373.129 89.3304 366.249 89.3304C362.757 89.2063 359.321 88.4202 356.122 87.0139C356.138 89.7734 356.834 92.4865 358.148 94.9127L358.051 94.9449ZM355.93 85.5016C359.031 87.2239 362.51 88.1523 366.056 88.2043C371.457 88.2043 377.822 84.4399 377.822 79.0346C377.73 76.8027 376.772 74.6949 375.151 73.1596C373.53 71.6243 371.374 70.7827 369.142 70.8139C360.27 70.9265 356.283 78.3589 356.026 85.5016H355.93Z" fill="white"/>
<path d="M423.89 136.45C415.21 136.45 409.713 134.616 397.561 128.406C390.617 132.653 387.434 133.908 382.516 133.908C375.475 133.908 368.917 131.013 368.917 125.318C368.917 121.071 374.318 117.692 380.394 117.692C384.445 117.692 388.592 118.947 396.307 123.001C398.137 119.968 399.811 116.843 401.322 113.638C403.142 109.135 404.688 104.526 405.951 99.8354C402.899 101.069 399.682 101.85 396.403 102.152C385.023 102.152 376.729 92.3065 376.729 80.7397C376.729 66.2611 388.592 55.4504 404.408 55.4504C408.748 55.4504 409.906 55.547 412.799 57.1879C410.017 56.7871 407.216 56.5293 404.408 56.4157C388.785 56.4157 377.694 67.4194 377.694 80.7397C377.694 91.3573 385.313 101.187 396.403 101.187C399.882 100.933 403.267 99.9462 406.337 98.291C410.966 79.2918 413.57 76.9753 418.007 71.0873C422.925 64.6524 428.905 61.2419 432.473 61.2419C438.067 61.2419 440.092 64.1376 440.092 67.9986C440.092 77.3614 432.859 89.3303 415.981 96.3766C413.763 109.246 411.931 113.156 402.672 125.334C413.474 129.098 418.296 129.87 426.687 129.87C444.914 129.87 454.751 122.245 454.751 110.566C454.751 105.45 452.437 102.168 447.325 98.4197L447.904 97.3418C452.533 100.044 456.295 104.388 456.295 110.566C456.295 123.998 441.249 136.45 423.89 136.45ZM378.369 119.172C374.318 119.172 370.171 122.261 370.171 125.253C370.171 129.018 374.704 132.396 380.49 132.396C384.927 132.396 391.099 129.5 394.668 126.122C392.739 124.867 383.384 119.172 378.369 119.172ZM432.521 62.1428C424.71 62.1428 415.933 78.2301 415.933 94.6552C426.349 90.6978 438.887 76.9592 438.887 67.9342C438.838 64.3628 437.488 62.1428 432.521 62.1428Z" fill="white"/>
<path d="M531.584 147.647C516.829 147.936 507.088 139.346 504.773 137.705C502.748 138.767 485.195 150.06 468.511 150.06C446.232 150.06 429.933 134.906 429.933 114.25C429.933 93.5935 443.628 79.501 464.171 79.501C466.088 79.5713 467.98 79.9685 469.764 80.6754V81.8337C467.983 81.104 466.092 80.6798 464.171 80.5788C442.76 80.5788 430.994 96.3122 430.994 114.25C430.994 134.134 446.907 149.095 468.511 149.095C484.424 149.095 503.873 136.933 503.873 136.933L500.401 133.844C500.401 133.844 490.564 135.967 490.564 131.238C490.564 126.508 500.69 131.527 500.69 131.527C501.848 131.527 507.731 126.122 508.213 124.867C509.177 122.551 516.025 107.976 516.025 101.508C512.13 102.093 508.197 102.383 504.259 102.377C499.051 109.906 486.224 134.23 468.896 134.23C458.963 134.23 453.755 128.728 453.755 121.682C453.755 110.968 464.556 100.945 479.312 100.945H503.327C505.404 96.6353 507.925 92.5538 510.849 88.7673C524.93 71.0712 538.818 67.8538 538.818 67.8538C539.396 67.8538 539.782 68.7225 539.782 69.4625C539.782 72.9374 527.534 75.7366 525.798 98.3232C525.798 98.3232 544.508 92.2261 544.508 74.7713C544.508 60.9684 530.427 50.1577 512.778 50.1577C493.586 50.1577 480.084 63.8641 480.084 75.1574C480.084 89.3464 490.21 92.7087 490.21 92.7087L489.921 93.9635C489.921 93.9635 478.669 90.4082 478.669 75.1574C478.734 63.285 493.007 48.8064 512.778 48.8064C531.295 48.8064 545.858 60.2927 545.858 74.7713C545.858 93.5774 525.605 100.061 525.605 100.061C525.605 100.061 524.93 105.643 524.64 106.898C523.676 110.855 517.118 125.334 502.651 133.345C503.809 134.407 505.063 135.565 505.545 136.048C526.441 123.178 529.077 121.666 536.31 121.666C543.543 121.666 549.169 126.685 549.169 132.927C549.233 140.987 539.396 147.454 531.584 147.647ZM482.784 102.602C469.475 102.602 458.288 111.772 458.288 121.714C458.288 129.919 462.531 132.975 468.896 132.975C484.038 132.975 496.576 111.161 502.169 102.667L482.784 102.602ZM492.525 131.56C492.525 133.973 497.829 132.428 497.829 132.428C497.829 132.428 492.525 129.5 492.525 131.527V131.56ZM515.189 85.6303C511.043 90.1534 507.685 95.3413 505.255 100.978C508.87 100.909 512.478 100.619 516.057 100.109C518.372 85.035 534.285 71.9239 532.549 71.9239C530.138 71.8917 521.072 78.8253 515.189 85.5981V85.6303ZM536.407 123.065C528.691 123.065 525.798 125.189 506.509 136.965C513.558 142.853 522.405 146.156 531.584 146.328C539.203 146.328 547.883 139.893 547.883 133.007C547.883 127.28 542.965 123.033 536.407 123.033V123.065Z" fill="white"/>
<path d="M76.6213 187.1C78.0633 195.596 79.0734 204.157 79.6478 212.754C79.6478 229.285 65.1459 243.062 47.8696 243.062C44.191 243.086 40.5436 242.389 37.137 241.01C33.7304 239.631 30.6316 237.597 28.0187 235.025C25.4057 232.454 23.33 229.395 21.9108 226.024C20.4915 222.653 19.7567 219.037 19.7485 215.384C20.0189 207.3 23.0926 199.558 28.4496 193.467C26.6849 191.168 25.4378 188.52 24.7926 185.702C20.5892 187.956 5.87703 197.474 5.87703 220.143C5.88151 230.71 10.073 240.851 17.5454 248.374C25.0178 255.896 35.1709 260.197 45.8099 260.345C61.3207 260.345 73.4267 249.449 73.4267 249.449V250.451C66.035 257.613 56.1367 261.653 45.8099 261.722C22.3966 261.806 4.59497 241.559 4.59497 220.059C4.59497 195.638 20.6102 186.662 24.6455 184.136C24.3933 165.601 45.9571 152.576 63.8638 152.576C77.483 152.576 81.5184 159.214 81.5184 159.214C82.3631 158.552 83.3392 158.077 84.3826 157.818C85.426 157.559 86.5128 157.522 87.5714 157.711C90.5978 158.212 92.1111 161.217 92.1111 164.474C92.006 173.073 76.8736 187.1 76.6213 187.1ZM72.7121 189.459C69.5498 191.742 66.1711 193.713 62.6238 195.345C64.3219 198.638 65.1875 202.292 65.1459 205.991C65.1459 212.754 56.5708 221.019 47.8696 221.019C46.6605 221.07 45.4532 220.883 44.3169 220.469C43.1806 220.056 42.1375 219.424 41.2473 218.61C40.3572 217.795 39.6374 216.815 39.1292 215.724C38.621 214.633 38.3344 213.454 38.2857 212.253C38.2054 210.066 38.9928 207.935 40.4787 206.318C41.9645 204.702 44.0299 203.73 46.2303 203.611C48.5002 203.611 49.7612 204.738 51.905 208.245C46.9869 208.621 44.8431 210.144 44.8431 212.754C44.8381 213.478 44.9845 214.196 45.2729 214.861C45.5614 215.527 45.9856 216.125 46.5189 216.62C47.0522 217.114 47.6829 217.493 48.3712 217.733C49.0595 217.973 49.7905 218.069 50.5178 218.014C57.2013 218.014 63.3804 211.251 63.3804 203.987C63.2422 201.247 62.5261 198.566 61.2787 196.118C56.4113 198.397 51.1422 199.708 45.7679 199.979C32.9053 199.979 29.1222 194.594 29.1222 194.594C29.1222 194.594 20.5471 204.363 20.9254 215.467C21.1776 221.479 26.0957 239.513 42.8675 239.513C62.5397 239.513 72.628 211.585 72.628 195.554L72.7121 189.459ZM63.7587 153.661C50.5178 153.661 26.432 164.098 25.9275 183.844C25.9275 183.844 33.4938 177.833 48.6263 175.954C56.9107 174.932 65.2471 174.382 73.5948 174.305C73.5948 168.941 76.8736 161.551 80.4045 159.694C80.4045 159.798 75.7386 153.661 63.7587 153.661ZM49.2568 177.081C33.1155 179.168 28.0713 184.22 26.1377 185.097C26.7748 187.78 27.9783 190.299 29.6686 192.486C34.3863 188.693 40.2458 186.577 46.3144 186.474C53.2501 186.474 56.5288 188.332 61.9512 193.968C65.7718 192.137 69.4403 190.008 72.9223 187.601L73.5528 175.578C73.5528 175.578 57.958 175.954 49.2568 177.081ZM46.2303 187.518C43.3309 187.416 40.4407 187.896 37.7323 188.929C35.024 189.962 32.5531 191.527 30.4673 193.529C30.4673 193.529 33.8721 198.664 45.852 198.664C50.9373 198.487 55.9076 197.114 60.3539 194.656C58.6918 192.495 56.5567 190.736 54.11 189.514C51.6632 188.292 48.9688 187.638 46.2303 187.601V187.518ZM85.3225 159.214C84.2201 159.359 83.176 159.791 82.296 160.466C86.0791 166.853 80.7828 174.493 76.243 175.495L76.4952 184.888C84.0615 178 88.6012 170.485 88.6012 163.472C88.6643 160.925 87.2141 159.297 85.3225 159.297V159.214ZM76.243 173.825C79.6478 173.449 83.9353 166.311 81.1611 161.176C79.5094 162.861 78.2213 164.863 77.3756 167.059C76.53 169.256 76.1446 171.601 76.243 173.95V173.825Z" fill="white"/>
<path d="M192.901 167.628C169.55 175.115 162.018 208.523 162.018 210.525C162.018 211.15 171.685 207.021 175.451 203.017C178.742 198.732 181.172 193.853 182.607 188.649L183.736 189.129C183.736 189.879 180.724 199.556 176.33 204.269C172.216 208.258 167.098 211.068 161.516 212.402C153.481 235.925 138.5 245.059 116.447 245.059C101.633 245.059 79.9149 236.175 79.9149 209.148C79.0866 204.742 78.7081 200.263 78.785 195.781C78.785 173.113 97.9927 156.742 116.447 156.742C120.825 156.72 125.154 157.66 129.127 159.495L128.876 160.621C124.91 158.901 120.646 157.966 116.322 157.868C99.3736 157.868 79.9149 173.363 79.9149 195.781C80.0486 198.796 80.3842 201.799 80.9192 204.769C80.9192 204.769 86.5685 177.012 117.326 177.012C124.532 177.088 131.525 179.456 137.287 183.769C138.821 178.607 141.884 174.028 146.074 170.631C154.444 162.873 167.542 158.744 182.607 158.744C192.901 158.744 203.53 161.247 207.087 163.124C207.966 163.749 207.589 164.5 207.966 165.376C202.861 165.388 197.785 166.147 192.901 167.628ZM144.777 209.336C138.249 228.73 125.946 234.736 111.635 234.861C90.1673 234.987 83.2626 215.342 81.3795 211.588C83.2626 236.113 102.303 243.745 116.531 243.745C126.197 243.745 143.898 229.356 150.678 212.589C148.511 211.826 146.488 210.705 144.694 209.274L144.777 209.336ZM137.914 197.011C137.157 193.129 136.779 189.184 136.785 185.229C131.333 180.635 124.402 178.155 117.263 178.243C86.5057 178.243 81.9863 205.749 81.3586 208.377C81.3586 208.377 88.7655 233.777 111.488 233.777C136.22 233.777 141.994 212.151 143.501 208.377C140.907 204.991 139.009 201.129 137.914 197.011ZM142.685 197.116C141.914 193.367 140.376 189.817 138.165 186.689C138.357 190.044 138.734 193.385 139.295 196.699C140.122 199.933 141.541 202.987 143.48 205.708C143.379 202.796 143.113 199.893 142.685 197.011V197.116ZM182.607 159.85C162.018 159.85 143.564 168.608 138.542 185C141.291 188.454 143.144 192.529 143.94 196.865C144.491 200.471 144.827 204.106 144.945 207.751C146.823 209.163 148.895 210.301 151.096 211.13C152.854 206.375 159.256 183.227 177.711 171.215C184.615 166.731 190.516 165.48 205.706 164.729C204.953 163.249 194.784 159.745 182.607 159.745V159.85Z" fill="white"/>
<path d="M250.109 248.392C238.849 248.392 231.717 245.996 215.953 237.884C206.945 243.432 202.816 245.071 196.435 245.071C187.302 245.071 178.794 241.289 178.794 233.849C178.794 228.301 185.8 223.888 193.682 223.888C198.937 223.888 204.317 225.527 214.326 230.823C216.701 226.86 218.872 222.778 220.832 218.592C223.194 212.709 225.199 206.687 226.838 200.56C222.878 202.172 218.705 203.192 214.451 203.586C199.688 203.586 188.928 190.725 188.928 175.615C188.928 156.7 204.317 142.578 224.836 142.578C230.466 142.578 231.968 142.704 235.721 144.848C232.112 144.324 228.479 143.987 224.836 143.839C204.567 143.839 190.179 158.214 190.179 175.615C190.179 189.485 200.063 202.325 214.451 202.325C218.964 201.994 223.355 200.705 227.338 198.543C233.344 173.723 236.722 170.697 242.477 163.005C248.858 154.599 256.615 150.144 261.244 150.144C268.501 150.144 271.129 153.926 271.129 158.97C271.129 171.201 261.745 186.837 239.85 196.042C236.972 212.854 234.595 217.961 222.584 233.87C236.597 238.788 242.853 239.796 253.738 239.796C277.384 239.796 290.146 229.835 290.146 214.578C290.146 207.895 287.143 203.607 280.512 198.711L281.263 197.303C287.268 200.833 292.148 206.508 292.148 214.578C292.148 232.126 272.609 248.392 250.109 248.392ZM191.055 225.821C185.8 225.821 180.42 229.856 180.42 233.765C180.42 238.683 186.301 243.096 193.807 243.096C199.563 243.096 207.57 239.313 212.199 234.9C209.697 233.261 197.54 225.821 191.055 225.821ZM261.244 151.32C251.11 151.32 239.725 172.336 239.725 193.793C253.237 188.623 269.502 170.676 269.502 158.886C269.502 154.221 267.75 151.32 261.244 151.32Z" fill="white"/>
<path d="M385.139 220.707C379.666 220.738 374.367 218.793 370.229 215.233C366.091 211.672 363.396 206.739 362.645 201.351C361.894 195.963 363.139 190.488 366.147 185.944C369.156 181.4 373.723 178.097 378.999 176.65V177.521C374.502 178.864 370.572 181.635 367.811 185.409C365.049 189.184 363.61 193.753 363.713 198.419C363.689 201.204 364.23 203.965 365.304 206.538C366.377 209.111 367.96 211.443 369.96 213.395C371.959 215.347 374.334 216.879 376.941 217.9C379.549 218.921 382.337 219.409 385.139 219.337C400.175 219.337 414.376 203.026 414.376 186.735C414.376 171.918 402.848 162.953 386.309 162.953C366.511 162.953 352.101 178.766 347.841 185.781C343.33 193.127 331.134 214.834 302.356 245.049C301.586 245.098 300.814 244.97 300.101 244.675C305.364 232.473 306.491 231.726 306.867 223.384C307.243 215.041 306.491 202.465 307.619 195.866C308.997 187.047 311.128 171.98 320.4 166.253C320.4 166.253 304.361 159.405 294.462 159.405C280.93 159.405 271.156 168.494 271.156 180.925C271.156 189.226 278.298 193.895 279.176 195.742C275.682 194.861 272.591 192.831 270.407 189.982C268.223 187.134 267.074 183.634 267.147 180.053C267.147 167.602 278.674 158.408 294.462 158.408C306.115 158.408 320.525 165.506 321.611 165.132C323.48 163.391 325.842 162.261 328.377 161.895C328.878 161.888 329.364 162.061 329.748 162.381C330.131 162.701 330.386 163.147 330.466 163.638C330.466 166.377 325.83 167.373 322.112 166.626C318.353 169.366 316.85 173.973 316.85 179.181C316.85 186.673 319.857 200.722 319.857 207.072C319.857 214.17 315.973 223.384 306.324 238.45C324.242 220.395 336.271 200.971 346.296 185.054C350.472 178.455 360.329 159.654 386.267 159.654C402.807 159.654 415.504 170.86 415.504 186.798C415.462 204.769 400.927 220.707 385.139 220.707ZM327.375 163.202C325.698 163.51 324.163 164.338 322.989 165.568C325.621 166.44 328.628 165.194 328.628 163.949C328.565 163.451 328.127 163.202 327.375 163.202Z" fill="white"/>
<path d="M482.604 262.771C463.426 263.145 450.766 252.047 447.758 249.927C445.126 251.299 422.314 265.889 400.629 265.889C371.675 265.889 350.492 246.311 350.492 219.625C350.492 192.94 368.291 174.734 394.989 174.734C397.481 174.825 399.94 175.338 402.259 176.251V177.747C399.944 176.805 397.486 176.257 394.989 176.126C367.163 176.126 351.871 196.452 351.871 219.625C351.871 245.313 372.552 264.642 400.629 264.642C421.311 264.642 446.588 248.93 446.588 248.93L442.076 244.939C442.076 244.939 429.291 247.683 429.291 241.572C429.291 235.462 442.452 241.946 442.452 241.946C443.956 241.946 451.602 234.963 452.229 233.342C453.482 230.349 462.382 211.52 462.382 203.165C457.32 203.92 452.208 204.295 447.09 204.287C440.321 214.014 423.651 245.438 401.131 245.438C388.22 245.438 381.452 238.33 381.452 229.227C381.452 215.386 395.49 202.438 414.668 202.438H445.878C448.578 196.869 451.855 191.597 455.655 186.705C473.955 163.843 492.004 159.687 492.004 159.687C492.756 159.687 493.258 160.809 493.258 161.765C493.258 166.254 477.339 169.87 475.083 199.05C475.083 199.05 499.4 191.173 499.4 168.623C499.4 150.791 481.099 136.825 458.162 136.825C433.218 136.825 415.67 154.532 415.67 169.122C415.67 187.453 428.831 191.797 428.831 191.797L428.455 193.418C428.455 193.418 413.832 188.825 413.832 169.122C413.978 153.784 432.466 135.079 458.224 135.079C482.29 135.079 501.217 149.919 501.217 168.623C501.217 192.919 474.895 201.295 474.895 201.295C474.895 201.295 474.018 208.506 473.642 210.127C472.388 215.24 463.865 233.945 445.063 244.295C446.567 245.667 448.197 247.163 448.824 247.787C475.981 231.16 479.407 229.206 488.808 229.206C498.209 229.206 505.52 235.691 505.52 243.755C505.583 254.167 492.819 262.522 482.604 262.771ZM419.18 204.578C401.883 204.578 387.343 216.425 387.343 229.269C387.343 239.868 392.858 243.817 401.131 243.817C420.809 243.817 437.104 215.635 444.374 204.661L419.18 204.578ZM431.84 241.988C431.84 245.106 438.733 243.11 438.733 243.11C438.733 243.11 431.902 239.328 431.902 241.946L431.84 241.988ZM461.295 182.652C455.906 188.495 451.542 195.198 448.385 202.479C453.083 202.391 457.771 202.016 462.423 201.357C465.432 181.883 486.113 164.945 483.857 164.945C480.786 164.903 469.004 173.861 461.358 182.61L461.295 182.652ZM488.871 230.973C478.843 230.973 475.083 233.716 450.014 248.93C459.176 256.536 470.673 260.803 482.604 261.025C492.506 261.025 503.787 252.712 503.787 243.817C503.849 236.46 497.457 230.973 488.871 230.973Z" fill="white"/>
</g>
<defs>
<clipPath id="clip0_26_63">
<rect width="549" height="266" fill="white"/>
</clipPath>
</defs>
</svg>
