<svg width="1731" height="814" viewBox="0 0 1731 814" fill="none" xmlns="http://www.w3.org/2000/svg">
<g clip-path="url(#clip0_152_160)">
<rect width="1731" height="814" fill="#323232"/>
<rect width="1731" height="814" fill="#1B1B1B"/>
<path d="M547.187 361V286.888H521.203V271.4H592.371V286.888H566.387V361H547.187ZM604.326 361V296.488H623.526V361H604.326ZM613.926 289.064C610.513 289.064 607.739 288.083 605.606 286.12C603.473 284.157 602.406 281.683 602.406 278.696C602.406 275.624 603.473 273.107 605.606 271.144C607.739 269.181 610.513 268.2 613.926 268.2C617.425 268.2 620.241 269.181 622.374 271.144C624.593 273.107 625.702 275.624 625.702 278.696C625.702 281.683 624.593 284.157 622.374 286.12C620.241 288.083 617.425 289.064 613.926 289.064ZM672.317 362.536C665.661 362.536 659.773 361.085 654.653 358.184C649.618 355.283 645.65 351.315 642.749 346.28C639.933 341.245 638.525 335.485 638.525 329C638.525 322.344 639.933 316.499 642.749 311.464C645.65 306.344 649.618 302.333 654.653 299.432C659.773 296.445 665.661 294.952 672.317 294.952C680.765 294.952 687.848 297.171 693.565 301.608C699.368 306.045 703.037 312.232 704.573 320.168H684.221C683.453 317.437 682.002 315.304 679.869 313.768C677.736 312.232 675.176 311.464 672.189 311.464C669.373 311.464 666.898 312.189 664.765 313.64C662.717 315.005 661.096 317.011 659.901 319.656C658.706 322.216 658.109 325.245 658.109 328.744C658.109 331.389 658.45 333.779 659.133 335.912C659.816 338.045 660.754 339.88 661.949 341.416C663.229 342.952 664.722 344.147 666.429 345C668.136 345.768 670.056 346.152 672.189 346.152C674.237 346.152 676.029 345.811 677.565 345.128C679.186 344.445 680.552 343.464 681.661 342.184C682.856 340.904 683.709 339.325 684.221 337.448H704.573C703.037 345.128 699.368 351.229 693.565 355.752C687.762 360.275 680.68 362.536 672.317 362.536ZM769.312 361V286.888H743.328V271.4H814.496V286.888H788.512V361H769.312ZM836.586 362.536C831.21 362.536 826.73 361.683 823.146 359.976C819.647 358.269 817.045 355.965 815.338 353.064C813.717 350.077 812.906 346.792 812.906 343.208C812.906 339.368 813.845 335.997 815.722 333.096C817.685 330.109 820.714 327.763 824.81 326.056C828.906 324.264 834.069 323.368 840.298 323.368H855.914C855.914 320.467 855.53 318.077 854.762 316.2C854.079 314.323 852.927 312.915 851.306 311.976C849.685 311.037 847.466 310.568 844.65 310.568C841.663 310.568 839.146 311.165 837.098 312.36C835.05 313.555 833.77 315.432 833.258 317.992H814.826C815.253 313.384 816.746 309.373 819.306 305.96C821.951 302.547 825.45 299.859 829.802 297.896C834.154 295.933 839.146 294.952 844.778 294.952C850.922 294.952 856.255 295.976 860.778 298.024C865.301 299.987 868.799 302.888 871.274 306.728C873.834 310.568 875.114 315.347 875.114 321.064V361H859.114L856.81 351.656C855.871 353.277 854.762 354.771 853.482 356.136C852.202 357.416 850.709 358.568 849.002 359.592C847.295 360.531 845.418 361.256 843.37 361.768C841.322 362.28 839.061 362.536 836.586 362.536ZM841.322 347.944C843.37 347.944 845.162 347.603 846.698 346.92C848.234 346.237 849.557 345.299 850.666 344.104C851.775 342.909 852.671 341.544 853.354 340.008C854.122 338.387 854.677 336.637 855.018 334.76V334.632H842.602C840.469 334.632 838.677 334.931 837.226 335.528C835.861 336.04 834.837 336.808 834.154 337.832C833.471 338.856 833.13 340.051 833.13 341.416C833.13 342.867 833.471 344.104 834.154 345.128C834.922 346.067 835.903 346.792 837.098 347.304C838.378 347.731 839.786 347.944 841.322 347.944ZM922.942 362.536C916.286 362.536 910.398 361.085 905.278 358.184C900.243 355.283 896.275 351.315 893.374 346.28C890.558 341.245 889.15 335.485 889.15 329C889.15 322.344 890.558 316.499 893.374 311.464C896.275 306.344 900.243 302.333 905.278 299.432C910.398 296.445 916.286 294.952 922.942 294.952C931.39 294.952 938.473 297.171 944.19 301.608C949.993 306.045 953.662 312.232 955.198 320.168H934.846C934.078 317.437 932.627 315.304 930.494 313.768C928.361 312.232 925.801 311.464 922.814 311.464C919.998 311.464 917.523 312.189 915.39 313.64C913.342 315.005 911.721 317.011 910.526 319.656C909.331 322.216 908.734 325.245 908.734 328.744C908.734 331.389 909.075 333.779 909.758 335.912C910.441 338.045 911.379 339.88 912.574 341.416C913.854 342.952 915.347 344.147 917.054 345C918.761 345.768 920.681 346.152 922.814 346.152C924.862 346.152 926.654 345.811 928.19 345.128C929.811 344.445 931.177 343.464 932.286 342.184C933.481 340.904 934.334 339.325 934.846 337.448H955.198C953.662 345.128 949.993 351.229 944.19 355.752C938.387 360.275 931.305 362.536 922.942 362.536ZM1019.94 361V286.888H993.953V271.4H1065.12V286.888H1039.14V361H1019.94ZM1096.3 362.536C1090.07 362.536 1084.48 361.085 1079.53 358.184C1074.58 355.283 1070.65 351.315 1067.75 346.28C1064.85 341.16 1063.4 335.357 1063.4 328.872C1063.4 322.216 1064.85 316.371 1067.75 311.336C1070.65 306.216 1074.58 302.205 1079.53 299.304C1084.56 296.403 1090.15 294.952 1096.3 294.952C1102.61 294.952 1108.24 296.403 1113.19 299.304C1118.14 302.205 1122.07 306.216 1124.97 311.336C1127.87 316.371 1129.32 322.173 1129.32 328.744C1129.32 335.315 1127.87 341.16 1124.97 346.28C1122.07 351.315 1118.14 355.283 1113.19 358.184C1108.24 361.085 1102.61 362.536 1096.3 362.536ZM1096.3 345.896C1098.86 345.896 1101.12 345.256 1103.08 343.976C1105.13 342.696 1106.75 340.776 1107.94 338.216C1109.14 335.656 1109.74 332.499 1109.74 328.744C1109.74 324.989 1109.14 321.832 1107.94 319.272C1106.75 316.712 1105.17 314.792 1103.21 313.512C1101.25 312.232 1098.98 311.592 1096.42 311.592C1093.86 311.592 1091.56 312.232 1089.51 313.512C1087.55 314.792 1085.97 316.712 1084.78 319.272C1083.58 321.832 1082.98 324.989 1082.98 328.744C1082.98 332.499 1083.58 335.656 1084.78 338.216C1085.97 340.776 1087.55 342.696 1089.51 343.976C1091.56 345.256 1093.82 345.896 1096.3 345.896ZM1175.81 362.536C1169.16 362.536 1163.31 361.171 1158.28 358.44C1153.24 355.624 1149.28 351.741 1146.37 346.792C1143.56 341.757 1142.15 335.997 1142.15 329.512C1142.15 322.856 1143.56 316.925 1146.37 311.72C1149.19 306.515 1153.12 302.419 1158.15 299.432C1163.18 296.445 1169.03 294.952 1175.69 294.952C1182.17 294.952 1187.85 296.36 1192.71 299.176C1197.57 301.992 1201.37 305.832 1204.1 310.696C1206.92 315.475 1208.33 321.021 1208.33 327.336C1208.33 328.189 1208.28 329.171 1208.2 330.28C1208.2 331.304 1208.11 332.371 1207.94 333.48H1155.85V322.344H1188.74C1188.57 318.76 1187.25 315.901 1184.77 313.768C1182.38 311.549 1179.4 310.44 1175.81 310.44C1173.08 310.44 1170.61 311.08 1168.39 312.36C1166.17 313.64 1164.38 315.56 1163.01 318.12C1161.73 320.68 1161.09 323.923 1161.09 327.848V331.688C1161.09 334.675 1161.65 337.32 1162.76 339.624C1163.95 341.928 1165.62 343.72 1167.75 345C1169.97 346.28 1172.57 346.92 1175.56 346.92C1178.37 346.92 1180.68 346.365 1182.47 345.256C1184.35 344.061 1185.8 342.568 1186.82 340.776H1206.41C1205.21 344.872 1203.16 348.584 1200.26 351.912C1197.36 355.155 1193.82 357.757 1189.64 359.72C1185.46 361.597 1180.85 362.536 1175.81 362.536Z" fill="url(#paint0_linear_152_160)"/>
<g opacity="0.38" filter="url(#filter0_d_152_160)">
<rect x="695" y="439" width="356" height="99" rx="44" fill="#292424"/>
</g>
<path d="M755.74 502.48C753.82 502.48 752.114 502.107 750.62 501.36C749.127 500.613 747.86 499.667 746.82 498.52L748.02 497.24C748.98 498.307 750.127 499.173 751.46 499.84C752.794 500.48 754.22 500.8 755.74 500.8C757.767 500.8 759.367 500.307 760.54 499.32C761.714 498.333 762.3 497.067 762.3 495.52C762.3 494.427 762.087 493.547 761.66 492.88C761.234 492.213 760.66 491.667 759.94 491.24C759.247 490.787 758.46 490.373 757.58 490L753.58 488.2C752.834 487.853 752.034 487.427 751.18 486.92C750.354 486.387 749.647 485.707 749.06 484.88C748.5 484.027 748.22 482.947 748.22 481.64C748.22 480.36 748.554 479.24 749.22 478.28C749.887 477.293 750.794 476.533 751.94 476C753.114 475.44 754.434 475.16 755.9 475.16C757.474 475.16 758.887 475.48 760.14 476.12C761.394 476.733 762.42 477.467 763.22 478.32L762.18 479.52C761.407 478.72 760.5 478.08 759.46 477.6C758.42 477.093 757.234 476.84 755.9 476.84C754.167 476.84 752.754 477.267 751.66 478.12C750.594 478.973 750.06 480.12 750.06 481.56C750.06 482.573 750.3 483.4 750.78 484.04C751.287 484.68 751.887 485.2 752.58 485.6C753.3 486 753.98 486.347 754.62 486.64L758.62 488.4C759.607 488.827 760.514 489.333 761.34 489.92C762.194 490.48 762.874 491.2 763.38 492.08C763.914 492.933 764.18 494.04 764.18 495.4C764.18 496.733 763.834 497.947 763.14 499.04C762.447 500.107 761.46 500.947 760.18 501.56C758.927 502.173 757.447 502.48 755.74 502.48ZM773.9 502.48C772.034 502.48 770.767 501.947 770.1 500.88C769.434 499.787 769.1 498.387 769.1 496.68V484.32H766.1V482.96L769.14 482.8L769.38 477.24H770.9V482.8H776.46V484.32H770.9V496.84C770.9 498.067 771.114 499.053 771.54 499.8C771.967 500.547 772.834 500.92 774.14 500.92C774.514 500.92 774.914 500.867 775.34 500.76C775.794 500.627 776.194 500.48 776.54 500.32L777.02 501.76C776.46 501.947 775.887 502.107 775.3 502.24C774.74 502.4 774.274 502.48 773.9 502.48ZM784.423 502.48C782.903 502.48 781.596 502.053 780.503 501.2C779.41 500.347 778.863 499.013 778.863 497.2C778.863 495.067 779.863 493.453 781.863 492.36C783.863 491.24 786.996 490.44 791.263 489.96C791.29 488.973 791.183 488.027 790.943 487.12C790.703 486.187 790.25 485.413 789.583 484.8C788.943 484.187 787.983 483.88 786.703 483.88C785.423 483.88 784.25 484.133 783.183 484.64C782.116 485.147 781.25 485.64 780.583 486.12L779.783 484.8C780.236 484.48 780.823 484.133 781.543 483.76C782.263 483.36 783.076 483.027 783.983 482.76C784.916 482.467 785.903 482.32 786.943 482.32C788.463 482.32 789.663 482.653 790.543 483.32C791.423 483.987 792.05 484.88 792.423 486C792.823 487.093 793.023 488.333 793.023 489.72V502H791.503L791.343 499.52H791.223C790.236 500.293 789.17 500.987 788.023 501.6C786.876 502.187 785.676 502.48 784.423 502.48ZM784.743 500.96C785.836 500.96 786.89 500.693 787.903 500.16C788.943 499.627 790.063 498.853 791.263 497.84V491.32C788.623 491.64 786.53 492.053 784.983 492.56C783.436 493.067 782.33 493.707 781.663 494.48C780.996 495.227 780.663 496.107 780.663 497.12C780.663 498.507 781.063 499.493 781.863 500.08C782.69 500.667 783.65 500.96 784.743 500.96ZM799.871 502V482.8H801.391L801.551 486.36H801.671C802.311 485.187 803.085 484.227 803.991 483.48C804.925 482.707 805.965 482.32 807.111 482.32C807.485 482.32 807.818 482.347 808.111 482.4C808.405 482.453 808.711 482.56 809.031 482.72L808.631 484.32C808.311 484.187 808.031 484.107 807.791 484.08C807.551 484.027 807.245 484 806.871 484C806.018 484 805.111 484.373 804.151 485.12C803.218 485.84 802.378 487.107 801.631 488.92V502H799.871ZM817.807 502.48C815.94 502.48 814.673 501.947 814.007 500.88C813.34 499.787 813.007 498.387 813.007 496.68V484.32H810.007V482.96L813.047 482.8L813.287 477.24H814.807V482.8H820.367V484.32H814.807V496.84C814.807 498.067 815.02 499.053 815.447 499.8C815.873 500.547 816.74 500.92 818.047 500.92C818.42 500.92 818.82 500.867 819.247 500.76C819.7 500.627 820.1 500.48 820.447 500.32L820.927 501.76C820.367 501.947 819.793 502.107 819.207 502.24C818.647 502.4 818.18 502.48 817.807 502.48ZM842.875 502.48C840.609 502.48 838.622 501.92 836.915 500.8C835.235 499.68 833.915 498.093 832.955 496.04C832.022 493.987 831.555 491.56 831.555 488.76C831.555 485.96 832.035 483.547 832.995 481.52C833.982 479.493 835.342 477.933 837.075 476.84C838.835 475.72 840.875 475.16 843.195 475.16C844.982 475.16 846.449 475.507 847.595 476.2C848.769 476.867 849.702 477.573 850.395 478.32L849.315 479.56C848.649 478.813 847.822 478.173 846.835 477.64C845.875 477.107 844.675 476.84 843.235 476.84C841.235 476.84 839.502 477.333 838.035 478.32C836.569 479.28 835.435 480.653 834.635 482.44C833.862 484.2 833.475 486.307 833.475 488.76C833.475 491.187 833.849 493.307 834.595 495.12C835.342 496.933 836.422 498.333 837.835 499.32C839.275 500.307 840.995 500.8 842.995 500.8C844.195 500.8 845.315 500.627 846.355 500.28C847.422 499.933 848.275 499.44 848.915 498.8V490.6H842.595V489.04H850.675V499.48C849.849 500.36 848.769 501.08 847.435 501.64C846.129 502.2 844.609 502.48 842.875 502.48ZM861.454 502.48C859.934 502.48 858.628 502.053 857.534 501.2C856.441 500.347 855.894 499.013 855.894 497.2C855.894 495.067 856.894 493.453 858.894 492.36C860.894 491.24 864.028 490.44 868.294 489.96C868.321 488.973 868.214 488.027 867.974 487.12C867.734 486.187 867.281 485.413 866.614 484.8C865.974 484.187 865.014 483.88 863.734 483.88C862.454 483.88 861.281 484.133 860.214 484.64C859.148 485.147 858.281 485.64 857.614 486.12L856.814 484.8C857.268 484.48 857.854 484.133 858.574 483.76C859.294 483.36 860.108 483.027 861.014 482.76C861.948 482.467 862.934 482.32 863.974 482.32C865.494 482.32 866.694 482.653 867.574 483.32C868.454 483.987 869.081 484.88 869.454 486C869.854 487.093 870.054 488.333 870.054 489.72V502H868.534L868.374 499.52H868.254C867.268 500.293 866.201 500.987 865.054 501.6C863.908 502.187 862.708 502.48 861.454 502.48ZM861.774 500.96C862.868 500.96 863.921 500.693 864.934 500.16C865.974 499.627 867.094 498.853 868.294 497.84V491.32C865.654 491.64 863.561 492.053 862.014 492.56C860.468 493.067 859.361 493.707 858.694 494.48C858.028 495.227 857.694 496.107 857.694 497.12C857.694 498.507 858.094 499.493 858.894 500.08C859.721 500.667 860.681 500.96 861.774 500.96ZM876.903 502V482.8H878.423L878.583 485.76H878.703C879.556 484.773 880.503 483.96 881.543 483.32C882.609 482.653 883.676 482.32 884.743 482.32C886.289 482.32 887.476 482.68 888.303 483.4C889.129 484.12 889.716 485.067 890.063 486.24C891.156 485.04 892.236 484.093 893.303 483.4C894.396 482.68 895.489 482.32 896.583 482.32C900.423 482.32 902.343 484.773 902.343 489.68V502H900.543V489.92C900.543 485.92 899.116 483.92 896.263 483.92C894.556 483.92 892.636 485.12 890.503 487.52V502H888.743V489.92C888.743 487.867 888.396 486.36 887.703 485.4C887.009 484.413 885.916 483.92 884.423 483.92C882.716 483.92 880.796 485.12 878.663 487.52V502H876.903ZM916.644 502.48C915.017 502.48 913.524 502.08 912.164 501.28C910.83 500.48 909.764 499.333 908.964 497.84C908.164 496.32 907.764 494.52 907.764 492.44C907.764 490.333 908.164 488.533 908.964 487.04C909.764 485.52 910.804 484.36 912.084 483.56C913.364 482.733 914.71 482.32 916.124 482.32C918.417 482.32 920.217 483.093 921.524 484.64C922.83 486.187 923.484 488.373 923.484 491.2C923.484 491.44 923.47 491.68 923.444 491.92C923.444 492.16 923.417 492.4 923.364 492.64H909.564C909.59 494.24 909.897 495.667 910.484 496.92C911.097 498.173 911.937 499.16 913.004 499.88C914.097 500.6 915.364 500.96 916.804 500.96C917.844 500.96 918.777 500.8 919.604 500.48C920.457 500.16 921.244 499.747 921.964 499.24L922.684 500.6C921.937 501.053 921.097 501.48 920.164 501.88C919.23 502.28 918.057 502.48 916.644 502.48ZM909.564 491.2H921.804C921.804 488.747 921.297 486.907 920.284 485.68C919.27 484.453 917.897 483.84 916.164 483.84C915.07 483.84 914.044 484.133 913.084 484.72C912.15 485.307 911.364 486.147 910.724 487.24C910.084 488.333 909.697 489.653 909.564 491.2Z" fill="white"/>
<path d="M991 488.5L955.75 508.852L955.75 468.148L991 488.5Z" fill="white"/>
<rect y="274.344" width="1731" height="540" fill="url(#paint1_linear_152_160)"/>
</g>
<defs>
<filter id="filter0_d_152_160" x="658" y="433" width="410" height="153" filterUnits="userSpaceOnUse" color-interpolation-filters="sRGB">
<feFlood flood-opacity="0" result="BackgroundImageFix"/>
<feColorMatrix in="SourceAlpha" type="matrix" values="0 0 0 0 0 0 0 0 0 0 0 0 0 0 0 0 0 0 127 0" result="hardAlpha"/>
<feOffset dx="-10" dy="21"/>
<feGaussianBlur stdDeviation="13.5"/>
<feComposite in2="hardAlpha" operator="out"/>
<feColorMatrix type="matrix" values="0 0 0 0 0 0 0 0 0 0 0 0 0 0 0 0 0 0 1 0"/>
<feBlend mode="normal" in2="BackgroundImageFix" result="effect1_dropShadow_152_160"/>
<feBlend mode="normal" in="SourceGraphic" in2="effect1_dropShadow_152_160" result="shape"/>
</filter>
<linearGradient id="paint0_linear_152_160" x1="866" y1="183" x2="866" y2="451" gradientUnits="userSpaceOnUse">
<stop stop-color="white"/>
<stop offset="1" stop-color="#595959"/>
</linearGradient>
<linearGradient id="paint1_linear_152_160" x1="866.012" y1="220.344" x2="865.616" y2="814.344" gradientUnits="userSpaceOnUse">
<stop stop-opacity="0"/>
<stop offset="0.490385" stop-opacity="0"/>
<stop offset="1"/>
</linearGradient>
<clipPath id="clip0_152_160">
<rect width="1731" height="814" fill="white"/>
</clipPath>
</defs>
</svg>
